<svg width="48" height="48" viewBox="0 0 48 48" fill="none" xmlns="http://www.w3.org/2000/svg">
  <g filter="url(#filter0_b_313_3376)">
    <rect width="48" height="48" rx="16" fill="white" fill-opacity="0.08" />
    <rect x="0.25" y="0.25" width="47.5" height="47.5" rx="15.75"
      stroke="url(#paint0_linear_313_3376)" stroke-opacity="0.2" stroke-width="0.5" />
  </g>
  <path fill-rule="evenodd" clip-rule="evenodd"
    d="M13 24C13 17.9249 17.9249 13 24 13C30.0751 13 35 17.9249 35 24C35 30.0751 30.0751 35 24 35C17.9249 35 13 30.0751 13 24ZM24 15C19.0294 15 15 19.0294 15 24C15 28.9706 19.0294 33 24 33C28.9706 33 33 28.9706 33 24C33 19.0294 28.9706 15 24 15ZM17 24C17 20.134 20.134 17 24 17C27.866 17 31 20.134 31 24C31 27.866 27.866 31 24 31C20.134 31 17 27.866 17 24ZM24 19C21.2386 19 19 21.2386 19 24C19 26.7614 21.2386 29 24 29C26.7614 29 29 26.7614 29 24C29 21.2386 26.7614 19 24 19ZM24 21C22.3431 21 21 22.3431 21 24C21 25.6569 22.3431 27 24 27C25.6569 27 27 25.6569 27 24C27 22.3431 25.6569 21 24 21ZM23 24C23 23.4477 23.4477 23 24 23C24.5523 23 25 23.4477 25 24C25 24.5523 24.5523 25 24 25C23.4477 25 23 24.5523 23 24Z"
    fill="#FFC73C" />
  <defs>
    <filter id="filter0_b_313_3376" x="-14.8" y="-14.8" width="77.6" height="77.6"
      filterUnits="userSpaceOnUse" color-interpolation-filters="sRGB">
      <feFlood flood-opacity="0" result="BackgroundImageFix" />
      <feGaussianBlur in="BackgroundImageFix" stdDeviation="7.4" />
      <feComposite in2="SourceAlpha" operator="in" result="effect1_backgroundBlur_313_3376" />
      <feBlend mode="normal" in="SourceGraphic" in2="effect1_backgroundBlur_313_3376" result="shape" />
    </filter>
    <linearGradient id="paint0_linear_313_3376" x1="24" y1="0" x2="24" y2="48"
      gradientUnits="userSpaceOnUse">
      <stop stop-color="white" />
      <stop offset="1" stop-opacity="0" />
    </linearGradient>
  </defs>
</svg>