<svg width="48" height="48" viewBox="0 0 48 48" fill="none" xmlns="http://www.w3.org/2000/svg">
  <g filter="url(#filter0_b_313_3457)">
    <rect width="48" height="48" rx="16" fill="white" fill-opacity="0.1" />
    <rect x="0.25" y="0.25" width="47.5" height="47.5" rx="15.75"
      stroke="url(#paint0_linear_313_3457)" stroke-opacity="0.2" stroke-width="0.5" />
  </g>
  <path fill-rule="evenodd" clip-rule="evenodd"
    d="M24.5892 13.1921C24.2381 12.936 23.7617 12.936 23.4106 13.1921L21.0481 14.9154L18.1239 14.9098C17.6893 14.909 17.3039 15.189 17.1704 15.6026L16.2721 18.3854L13.9031 20.0997C13.551 20.3545 13.4038 20.8076 13.5389 21.2207L14.4478 24L13.5389 26.7793C13.4038 27.1924 13.551 27.6455 13.9031 27.9003L16.2721 29.6146L17.1704 32.3974C17.3039 32.811 17.6893 33.091 18.1239 33.0902L21.0481 33.0846L23.4106 34.8079C23.7617 35.064 24.2381 35.064 24.5892 34.8079L26.9517 33.0846L29.8758 33.0902C30.3105 33.091 30.6959 32.811 30.8294 32.3974L31.7277 29.6146L34.0967 27.9003C34.4488 27.6455 34.596 27.1924 34.4609 26.7793L33.552 24L34.4609 21.2207C34.596 20.8076 34.4488 20.3545 34.0967 20.0997L31.7277 18.3854L30.8294 15.6026C30.6959 15.189 30.3105 14.909 29.8758 14.9098L26.9517 14.9154L24.5892 13.1921ZM21.9626 16.7239L23.9999 15.2378L26.0372 16.7239C26.2089 16.8491 26.416 16.9164 26.6284 16.916L29.1502 16.9112L29.9249 19.311C29.9902 19.5132 30.1182 19.6894 30.2903 19.814L32.3333 21.2923L31.5494 23.6892C31.4834 23.8911 31.4834 24.1089 31.5494 24.3108L32.3333 26.7077L30.2903 28.186C30.1182 28.3106 29.9902 28.4868 29.9249 28.689L29.1502 31.0888L26.6284 31.084C26.416 31.0836 26.2089 31.1509 26.0372 31.2761L23.9999 32.7622L21.9626 31.2761C21.7909 31.1509 21.5838 31.0836 21.3713 31.084L18.8496 31.0888L18.0749 28.689C18.0096 28.4868 17.8816 28.3106 17.7095 28.186L15.6665 26.7077L16.4504 24.3108C16.5164 24.1089 16.5164 23.8911 16.4504 23.6892L15.6665 21.2923L17.7095 19.814C17.8816 19.6894 18.0096 19.5132 18.0749 19.311L18.8496 16.9112L21.3713 16.916C21.5838 16.9164 21.7909 16.8491 21.9626 16.7239ZM27.8889 22.8284C28.2794 22.4379 28.2794 21.8047 27.8889 21.4142C27.4983 21.0237 26.8652 21.0237 26.4747 21.4142L22.9391 24.9497L21.5249 23.5355C21.1344 23.145 20.5012 23.145 20.1107 23.5355C19.7202 23.9261 19.7202 24.5592 20.1107 24.9497L22.232 27.0711C22.6225 27.4616 23.2557 27.4616 23.6462 27.0711L27.8889 22.8284Z"
    fill="#46A857" />
  <defs>
    <filter id="filter0_b_313_3457" x="-14.8" y="-14.8" width="77.6" height="77.6"
      filterUnits="userSpaceOnUse" color-interpolation-filters="sRGB">
      <feFlood flood-opacity="0" result="BackgroundImageFix" />
      <feGaussianBlur in="BackgroundImageFix" stdDeviation="7.4" />
      <feComposite in2="SourceAlpha" operator="in" result="effect1_backgroundBlur_313_3457" />
      <feBlend mode="normal" in="SourceGraphic" in2="effect1_backgroundBlur_313_3457" result="shape" />
    </filter>
    <linearGradient id="paint0_linear_313_3457" x1="24" y1="0" x2="24" y2="48"
      gradientUnits="userSpaceOnUse">
      <stop stop-color="white" />
      <stop offset="1" stop-opacity="0" />
    </linearGradient>
  </defs>
</svg>